<?xml version="1.0" encoding="utf-8"?>
<!-- Generator: Adobe Illustrator 25.2.1, SVG Export Plug-In . SVG Version: 6.00 Build 0)  -->
<svg version="1.1" id="Layer_1" xmlns="http://www.w3.org/2000/svg" xmlns:xlink="http://www.w3.org/1999/xlink" x="0px" y="0px"
	 viewBox="0 0 1133.86 170.26" style="enable-background:new 0 0 1133.86 170.26;" xml:space="preserve">
<style type="text/css">
	.st0{fill:#00586F;}
	.st1{fill:#2A7DE1;}
	.st2{fill:#65B2E8;}
	.st3{clip-path:url(#SVGID_2_);}
	.st4{clip-path:url(#SVGID_4_);}
	.st5{clip-path:url(#SVGID_6_);}
	.st6{fill:#1D1D1B;}
	.st7{fill:#FFFFFF;}
	.st8{fill:#575756;}
	.st9{fill:#B1B1B1;}
	.st10{clip-path:url(#SVGID_8_);}
	.st11{clip-path:url(#SVGID_10_);}
	.st12{clip-path:url(#SVGID_12_);}
	.st13{clip-path:url(#SVGID_14_);}
	.st14{clip-path:url(#SVGID_16_);}
	.st15{clip-path:url(#SVGID_18_);}
	.st16{clip-path:url(#SVGID_20_);}
	.st17{clip-path:url(#SVGID_22_);}
	.st18{clip-path:url(#SVGID_24_);}
	.st19{clip-path:url(#SVGID_26_);}
	.st20{clip-path:url(#SVGID_28_);}
	.st21{clip-path:url(#SVGID_30_);}
	.st22{fill:#051C2C;}
	.st23{clip-path:url(#SVGID_32_);}
	.st24{clip-path:url(#SVGID_34_);}
	.st25{clip-path:url(#SVGID_36_);}
	.st26{fill:#003B4A;}
	.st27{fill:#C2E76B;}
	.st28{opacity:0.7;clip-path:url(#SVGID_38_);}
	.st29{opacity:0.7;clip-path:url(#SVGID_40_);}
	.st30{opacity:0.7;clip-path:url(#SVGID_42_);}
	.st31{opacity:0.7;clip-path:url(#SVGID_44_);}
	.st32{opacity:0.7;clip-path:url(#SVGID_46_);}
	.st33{opacity:0.7;clip-path:url(#SVGID_48_);}
	.st34{opacity:0.7;clip-path:url(#SVGID_50_);}
	.st35{opacity:0.7;clip-path:url(#SVGID_52_);}
	.st36{opacity:0.7;clip-path:url(#SVGID_54_);}
	.st37{clip-path:url(#SVGID_56_);}
	.st38{clip-path:url(#SVGID_58_);}
	.st39{clip-path:url(#SVGID_60_);}
	.st40{opacity:0.7;clip-path:url(#SVGID_62_);}
	.st41{opacity:0.7;clip-path:url(#SVGID_64_);}
	.st42{opacity:0.7;clip-path:url(#SVGID_66_);}
	.st43{opacity:0.7;clip-path:url(#SVGID_68_);}
	.st44{opacity:0.7;clip-path:url(#SVGID_70_);}
	.st45{opacity:0.7;clip-path:url(#SVGID_72_);}
	.st46{clip-path:url(#SVGID_74_);}
	.st47{clip-path:url(#SVGID_76_);}
	.st48{clip-path:url(#SVGID_78_);}
	.st49{clip-path:url(#SVGID_80_);}
	.st50{clip-path:url(#SVGID_82_);}
	.st51{clip-path:url(#SVGID_84_);}
	.st52{opacity:0.7;clip-path:url(#SVGID_86_);}
	.st53{opacity:0.7;clip-path:url(#SVGID_88_);}
	.st54{opacity:0.7;clip-path:url(#SVGID_90_);}
	.st55{clip-path:url(#SVGID_92_);}
	.st56{clip-path:url(#SVGID_94_);}
	.st57{clip-path:url(#SVGID_96_);}
	.st58{opacity:0.7;clip-path:url(#SVGID_98_);}
	.st59{opacity:0.7;clip-path:url(#SVGID_100_);}
	.st60{opacity:0.7;clip-path:url(#SVGID_102_);}
	.st61{opacity:0.7;clip-path:url(#SVGID_104_);}
	.st62{opacity:0.7;clip-path:url(#SVGID_106_);}
	.st63{opacity:0.7;clip-path:url(#SVGID_108_);}
	.st64{clip-path:url(#SVGID_110_);}
	.st65{clip-path:url(#SVGID_112_);}
	.st66{clip-path:url(#SVGID_114_);}
	.st67{clip-path:url(#SVGID_116_);}
	.st68{clip-path:url(#SVGID_118_);}
	.st69{clip-path:url(#SVGID_120_);}
	.st70{clip-path:url(#SVGID_122_);}
	.st71{clip-path:url(#SVGID_124_);}
	.st72{clip-path:url(#SVGID_126_);}
	.st73{opacity:0.7;clip-path:url(#SVGID_128_);}
	.st74{opacity:0.7;clip-path:url(#SVGID_130_);}
	.st75{opacity:0.7;clip-path:url(#SVGID_132_);}
	.st76{clip-path:url(#SVGID_134_);}
	.st77{clip-path:url(#SVGID_136_);}
	.st78{clip-path:url(#SVGID_138_);}
	.st79{clip-path:url(#SVGID_140_);}
	.st80{clip-path:url(#SVGID_142_);}
	.st81{clip-path:url(#SVGID_144_);}
</style>
<g>
	<g>
		<g>
			<g>
				<g>
					<g>
						<path class="st7" d="M602.92,170.06l23.3-58.76h8.31l23.3,58.76h-8.14l-5.48-13.7h-28.26l-5.4,13.7H602.92z M618.17,150.36
							h23.81l-11.73-30.15h-0.34L618.17,150.36z"/>
						<path class="st7" d="M679.66,170.06v-52.59h-18.67v-6.17h44.97v6.17h-18.67v52.59H679.66z"/>
						<path class="st7" d="M719.92,170.06v-58.76h7.62v52.59h27.41l1.2,6.17H719.92z"/>
						<path class="st7" d="M762.14,170.06l23.3-58.76h8.31l23.3,58.76h-8.14l-5.48-13.7h-28.26l-5.4,13.7H762.14z M777.39,150.36
							h23.81l-11.73-30.15h-0.34L777.39,150.36z"/>
						<path class="st7" d="M829.2,170.06v-58.76h6.42l25.95,39.31l3.51,5.65h0.26v-44.97h6.85v58.76h-6.6l-26.72-40.6l-2.48-4.28
							h-0.34v44.88H829.2z"/>
						<path class="st7" d="M904.92,170.06v-52.59h-18.67v-6.17h44.97v6.17h-18.67v52.59H904.92z"/>
						<path class="st7" d="M942.69,170.06v-6.17h6.85v-46.42h-6.85v-6.17h21.24v6.17h-6.77v46.42h6.77v6.17H942.69z"/>
						<path class="st7" d="M1001.62,170.92c-3.25,0-6.27-0.46-9.04-1.37c-2.77-0.91-5.2-2.44-7.28-4.58
							c-2.09-2.14-3.71-5.04-4.88-8.69c-1.17-3.65-1.76-8.22-1.76-13.7v-3.77c0-5.42,0.6-9.96,1.8-13.62
							c1.2-3.65,2.87-6.57,5.01-8.74c2.14-2.17,4.61-3.71,7.41-4.63c2.8-0.91,5.79-1.37,8.99-1.37h0.86c2.91,0,5.7,0.39,8.35,1.16
							c2.66,0.77,5,2.04,7.02,3.81c2.03,1.77,3.63,4.13,4.8,7.07c1.17,2.94,1.76,6.58,1.76,10.92h-7.28c0-4.45-0.67-7.89-2.01-10.32
							c-1.34-2.43-3.17-4.11-5.48-5.05c-2.31-0.94-4.92-1.41-7.84-1.41c-2.23,0-4.28,0.31-6.17,0.94c-1.88,0.63-3.53,1.7-4.92,3.21
							c-1.4,1.51-2.48,3.61-3.25,6.3c-0.77,2.68-1.16,6.05-1.16,10.11v7.02c0,5.37,0.64,9.55,1.93,12.55c1.28,3,3.08,5.08,5.4,6.25
							c2.31,1.17,5.01,1.76,8.09,1.76c2.91,0,5.54-0.48,7.88-1.46c2.34-0.97,4.21-2.66,5.61-5.05c1.4-2.4,2.1-5.82,2.1-10.28h7.11
							c0,4.17-0.6,7.71-1.8,10.62c-1.2,2.91-2.83,5.27-4.88,7.07c-2.06,1.8-4.43,3.13-7.11,3.98c-2.68,0.86-5.48,1.28-8.39,1.28
							H1001.62z"/>
						<path class="st7" d="M1033.48,170.06l23.3-58.76h8.31l23.3,58.76h-8.14l-5.48-13.7h-28.26l-5.4,13.7H1033.48z M1048.72,150.36
							h23.81l-11.73-30.15h-0.34L1048.72,150.36z"/>
					</g>
				</g>
				<path class="st7" d="M800.34,103.75c-1.18-0.3-1.94-1.01-3.01-1.99c-1.67-1.54-3.74-3.45-7.74-3.45c-4,0-6.07,1.91-7.74,3.45
					c-1.06,0.98-1.83,1.69-3.01,1.99l-0.87,0.22v4.93l1.35-0.23c2.85-0.5,4.53-2.04,5.87-3.28c1.45-1.34,2.32-2.14,4.4-2.14
					c2.07,0,2.95,0.81,4.4,2.14c1.34,1.24,3.02,2.78,5.87,3.28l1.35,0.23v-4.93L800.34,103.75z"/>
			</g>
			<g>
				<g>
					<path class="st7" d="M625.79,82.9c-4.17,0-7.98-0.61-11.43-1.84c-3.46-1.23-6.22-3.15-8.31-5.78
						c-2.09-2.63-3.13-6.08-3.13-10.36c0-0.34,0-0.67,0-0.99c0-0.31,0.03-0.61,0.09-0.9h11.56c-0.06,0.29-0.09,0.54-0.09,0.77
						c0,0.23,0,0.49,0,0.77c0,1.83,0.44,3.4,1.33,4.71c0.88,1.31,2.2,2.31,3.94,3c1.74,0.69,3.81,1.03,6.21,1.03
						c2.68,0,4.88-0.27,6.6-0.81c1.71-0.54,3-1.38,3.85-2.53c0.86-1.14,1.28-2.54,1.28-4.2c0-1.77-0.61-3.18-1.84-4.24
						c-1.23-1.06-2.83-1.9-4.8-2.53c-1.97-0.63-4.14-1.21-6.51-1.76c-2.37-0.54-4.74-1.18-7.11-1.93c-2.37-0.74-4.55-1.74-6.55-3
						c-2-1.26-3.6-2.91-4.8-4.97c-1.2-2.06-1.8-4.68-1.8-7.88c0-3.82,1.04-6.99,3.13-9.51c2.08-2.51,4.85-4.4,8.31-5.65
						c3.45-1.26,7.21-1.88,11.26-1.88c4.05,0,7.74,0.59,11.05,1.76c3.31,1.17,5.97,3,7.97,5.48c2,2.48,3,5.7,3,9.64v1.11h-11.39
						v-1.03c0-1.54-0.41-2.88-1.24-4.03c-0.83-1.14-2.01-2.01-3.55-2.61c-1.54-0.6-3.43-0.9-5.65-0.9c-2.06,0-3.87,0.21-5.44,0.64
						c-1.57,0.43-2.78,1.11-3.64,2.06c-0.86,0.94-1.28,2.16-1.28,3.64c0,1.71,0.6,3.08,1.8,4.11c1.2,1.03,2.8,1.84,4.8,2.44
						c2,0.6,4.21,1.17,6.64,1.71c2.43,0.54,4.82,1.17,7.19,1.88c2.37,0.71,4.55,1.68,6.55,2.91c2,1.23,3.6,2.86,4.8,4.88
						c1.2,2.03,1.8,4.61,1.8,7.75c0,4.57-1.09,8.24-3.25,11.01c-2.17,2.77-5.1,4.8-8.78,6.08C634.65,82.26,630.47,82.9,625.79,82.9z
						"/>
					<path class="st7" d="M669.47,82.05V23.29h41.2v9.59h-28.78v14.47h25.1v9.42h-25.1v15.67h28.78v9.59H669.47z"/>
					<path class="st7" d="M729.17,82.05V23.29h10.45l20.98,31.18l3.08,5.4l0.34-0.09V23.29h11.31v58.76h-10.71l-21.58-32.29
						l-2.14-3.94l-0.43,0.09v36.14H729.17z"/>
					<path class="st7" d="M809.33,82.05V32.97h-16.87v-9.68h46.17v9.68h-16.87v49.08H809.33z"/>
					<path class="st7" d="M853.62,82.05v-9.34h6.85V32.63h-6.85v-9.34h26.21v9.34h-6.85v40.08h6.85v9.34H853.62z"/>
					<path class="st7" d="M899.61,82.05V23.29h10.45l20.98,31.18l3.08,5.4l0.34-0.09V23.29h11.31v58.76h-10.71l-21.58-32.29
						l-2.14-3.94l-0.43,0.09v36.14H899.61z"/>
					<path class="st7" d="M967.7,82.05V23.29h40.86l-1.37,9.59h-27.07v14.47h25.1v9.42h-25.1v15.67h27.41l1.37,9.59H967.7z"/>
					<path class="st7" d="M1027.4,82.05V23.29h12.5v48.99h24.58l1.46,9.76H1027.4z"/>
				</g>
				<path class="st7" d="M1075.87,82.05l21.58-58.76h14.9l21.5,58.76h-13.02l-4.54-12.16h-23.81l-4.54,12.16H1075.87z
					 M1095.57,60.89h17.56l-8.57-24.41h-0.34L1095.57,60.89z"/>
			</g>
		</g>
	</g>
	<g>
		<path class="st7" d="M157.71,69.43c2.15-1.97,4.31-3.91,6.54-5.77c32.57-27.18,71.32-41.55,112.04-41.55
			c40.73,0,79.47,14.37,112.04,41.55c2.22,1.85,4.38,3.79,6.52,5.75c8.08-3.96,15.77-6.95,23.25-9.2
			c-4.86-4.93-9.91-9.64-15.18-14.04C366.21,15.54,322.42-0.66,276.3-0.66s-89.91,16.2-126.63,46.84
			c-5.28,4.4-10.33,9.12-15.19,14.05C141.94,62.48,149.63,65.47,157.71,69.43z"/>
		<path class="st7" d="M100.45,99.36c0.29,2.57-0.18,5.27-1.64,7.79c-10.2,17.66-18.27,36.8-23.82,56.81l-1.83,6.08h23.77
			c5.71-20.62,14.37-40.2,25.44-57.92c1.67-2.67,3.54-5.57,6-7.24C118.68,101.13,109.99,100.09,100.45,99.36z"/>
		<path class="st7" d="M453.78,107.14c-1.46-2.52-1.92-5.23-1.64-7.79c-9.56,0.73-18.55,2.51-28.25,6.25
			c2.47,1.67,4.65,3.82,6.33,6.51c11.07,17.73,19.72,37.3,25.44,57.92h23.77l-1.83-6.08C472.05,143.94,463.98,124.8,453.78,107.14z"
			/>
		<path class="st7" d="M496.67,23.4h-53.32v18.21h43.21v23.47h-21.45c-26.94,0-51.46,4.16-83.56,24.48
			c-7.51,4.75-14.34,9.66-20.95,14.41c-23.56,16.92-43.91,31.53-84.32,31.53c-40.42,0-60.76-14.61-84.33-31.53
			c-6.61-4.75-13.45-9.66-20.95-14.41c-32.1-20.32-56.62-24.48-83.56-24.48H65.97V41.62H66h43.24V23.4H54.13H0v18.21h43.21v46.23
			h44.22c24.25,0,43.7,3.43,71.39,20.95c6.94,4.4,13.51,9.11,19.85,13.66c24.51,17.6,49.86,35.8,97.6,35.8
			c47.74,0,73.09-18.2,97.6-35.8c6.35-4.56,12.91-9.27,19.85-13.66c27.68-17.52,47.14-20.95,71.39-20.95h44.22V41.62h0.03l43.24,0
			V23.4L496.67,23.4z"/>
	</g>
</g>
</svg>
