<?xml version="1.0" encoding="utf-8"?>
<!-- Generator: Adobe Illustrator 25.2.1, SVG Export Plug-In . SVG Version: 6.00 Build 0)  -->
<svg version="1.1" id="Layer_1" xmlns="http://www.w3.org/2000/svg" xmlns:xlink="http://www.w3.org/1999/xlink" x="0px" y="0px"
	 viewBox="0 0 566.93 175.11" style="enable-background:new 0 0 566.93 175.11;" xml:space="preserve">
<style type="text/css">
	.st0{fill:#00586F;}
	.st1{fill:#2A7DE1;}
	.st2{fill:#65B2E8;}
	.st3{clip-path:url(#SVGID_2_);}
	.st4{clip-path:url(#SVGID_4_);}
	.st5{clip-path:url(#SVGID_6_);}
	.st6{fill:#1D1D1B;}
	.st7{fill:#FFFFFF;}
	.st8{fill:#575756;}
	.st9{fill:#B1B1B1;}
	.st10{clip-path:url(#SVGID_8_);}
	.st11{clip-path:url(#SVGID_10_);}
	.st12{clip-path:url(#SVGID_12_);}
	.st13{clip-path:url(#SVGID_14_);}
	.st14{clip-path:url(#SVGID_16_);}
	.st15{clip-path:url(#SVGID_18_);}
	.st16{clip-path:url(#SVGID_20_);}
	.st17{clip-path:url(#SVGID_22_);}
	.st18{clip-path:url(#SVGID_24_);}
	.st19{clip-path:url(#SVGID_26_);}
	.st20{clip-path:url(#SVGID_28_);}
	.st21{clip-path:url(#SVGID_30_);}
	.st22{fill:#051C2C;}
	.st23{clip-path:url(#SVGID_32_);}
	.st24{clip-path:url(#SVGID_34_);}
	.st25{clip-path:url(#SVGID_36_);}
	.st26{fill:#003B4A;}
	.st27{fill:#C2E76B;}
	.st28{opacity:0.7;clip-path:url(#SVGID_38_);}
	.st29{opacity:0.7;clip-path:url(#SVGID_40_);}
	.st30{opacity:0.7;clip-path:url(#SVGID_42_);}
	.st31{opacity:0.7;clip-path:url(#SVGID_44_);}
	.st32{opacity:0.7;clip-path:url(#SVGID_46_);}
	.st33{opacity:0.7;clip-path:url(#SVGID_48_);}
	.st34{opacity:0.7;clip-path:url(#SVGID_50_);}
	.st35{opacity:0.7;clip-path:url(#SVGID_52_);}
	.st36{opacity:0.7;clip-path:url(#SVGID_54_);}
	.st37{clip-path:url(#SVGID_56_);}
	.st38{clip-path:url(#SVGID_58_);}
	.st39{clip-path:url(#SVGID_60_);}
	.st40{opacity:0.7;clip-path:url(#SVGID_62_);}
	.st41{opacity:0.7;clip-path:url(#SVGID_64_);}
	.st42{opacity:0.7;clip-path:url(#SVGID_66_);}
	.st43{opacity:0.7;clip-path:url(#SVGID_68_);}
	.st44{opacity:0.7;clip-path:url(#SVGID_70_);}
	.st45{opacity:0.7;clip-path:url(#SVGID_72_);}
	.st46{clip-path:url(#SVGID_74_);}
	.st47{clip-path:url(#SVGID_76_);}
	.st48{clip-path:url(#SVGID_78_);}
	.st49{clip-path:url(#SVGID_80_);}
	.st50{clip-path:url(#SVGID_82_);}
	.st51{clip-path:url(#SVGID_84_);}
	.st52{opacity:0.7;clip-path:url(#SVGID_86_);}
	.st53{opacity:0.7;clip-path:url(#SVGID_88_);}
	.st54{opacity:0.7;clip-path:url(#SVGID_90_);}
	.st55{clip-path:url(#SVGID_92_);}
	.st56{clip-path:url(#SVGID_94_);}
	.st57{clip-path:url(#SVGID_96_);}
	.st58{opacity:0.7;clip-path:url(#SVGID_98_);}
	.st59{opacity:0.7;clip-path:url(#SVGID_100_);}
	.st60{opacity:0.7;clip-path:url(#SVGID_102_);}
	.st61{opacity:0.7;clip-path:url(#SVGID_104_);}
	.st62{opacity:0.7;clip-path:url(#SVGID_106_);}
	.st63{opacity:0.7;clip-path:url(#SVGID_108_);}
	.st64{clip-path:url(#SVGID_110_);}
	.st65{clip-path:url(#SVGID_112_);}
	.st66{clip-path:url(#SVGID_114_);}
	.st67{clip-path:url(#SVGID_116_);}
	.st68{clip-path:url(#SVGID_118_);}
	.st69{clip-path:url(#SVGID_120_);}
	.st70{clip-path:url(#SVGID_122_);}
	.st71{clip-path:url(#SVGID_124_);}
	.st72{clip-path:url(#SVGID_126_);}
	.st73{opacity:0.7;clip-path:url(#SVGID_128_);}
	.st74{opacity:0.7;clip-path:url(#SVGID_130_);}
	.st75{opacity:0.7;clip-path:url(#SVGID_132_);}
	.st76{clip-path:url(#SVGID_134_);}
	.st77{clip-path:url(#SVGID_136_);}
	.st78{clip-path:url(#SVGID_138_);}
	.st79{clip-path:url(#SVGID_140_);}
	.st80{clip-path:url(#SVGID_142_);}
	.st81{clip-path:url(#SVGID_144_);}
</style>
<g>
	<g>
		<path class="st7" d="M161.8,71.91c2.2-2.02,4.43-4.01,6.71-5.92c33.42-27.89,73.17-42.63,114.95-42.63
			c41.78,0,81.53,14.74,114.95,42.63c2.28,1.9,4.49,3.89,6.69,5.9c8.29-4.06,16.18-7.13,23.85-9.43
			c-4.99-5.06-10.17-9.89-15.58-14.4C375.71,16.62,330.78,0,283.46,0s-92.24,16.62-129.92,48.05c-5.41,4.52-10.6,9.35-15.59,14.41
			C145.63,64.77,153.51,67.84,161.8,71.91z"/>
		<path class="st7" d="M103.05,102.61c0.29,2.63-0.19,5.41-1.68,7.99c-10.47,18.12-18.75,37.75-24.43,58.28l-1.88,6.24h24.39
			c5.86-21.15,14.74-41.24,26.1-59.43c1.71-2.74,3.63-5.72,6.15-7.42C121.75,104.43,112.85,103.36,103.05,102.61z"/>
		<path class="st7" d="M465.55,110.6c-1.49-2.59-1.97-5.36-1.68-8c-9.8,0.75-19.03,2.58-28.98,6.41c2.53,1.71,4.77,3.92,6.49,6.67
			c11.36,18.19,20.23,38.27,26.1,59.43h24.39l-1.88-6.24C484.3,148.35,476.02,128.71,465.55,110.6z"/>
		<path class="st7" d="M509.56,24.68h-54.7v18.69h44.33v24.08h-22.01c-27.64,0-52.8,4.27-85.73,25.12
			c-7.7,4.87-14.71,9.91-21.5,14.78c-24.17,17.35-45.05,32.34-86.51,32.34c-41.47,0-62.34-14.99-86.51-32.34
			c-6.78-4.87-13.8-9.91-21.5-14.78c-32.93-20.85-58.09-25.12-85.73-25.12H67.69V43.37h0.03h44.36V24.68H55.53H0v18.69h44.33V90.8
			h45.36c24.88,0,44.84,3.52,73.24,21.49c7.12,4.51,13.86,9.34,20.37,14.02c25.15,18.06,51.15,36.73,100.14,36.73
			c48.98,0,74.99-18.67,100.13-36.73c6.51-4.67,13.24-9.51,20.37-14.02c28.4-17.98,48.36-21.49,73.24-21.49h45.36V43.37h0.03
			l44.36,0V24.68L509.56,24.68z"/>
	</g>
</g>
</svg>
