<?xml version="1.0" encoding="utf-8"?>
<!-- Generator: Adobe Illustrator 25.2.1, SVG Export Plug-In . SVG Version: 6.00 Build 0)  -->
<svg version="1.1" id="Layer_1" xmlns="http://www.w3.org/2000/svg" xmlns:xlink="http://www.w3.org/1999/xlink" x="0px" y="0px"
	 viewBox="0 0 566.93 332.34" style="enable-background:new 0 0 566.93 332.34;" xml:space="preserve">
<style type="text/css">
	.st0{fill:#00586F;}
	.st1{fill:#2A7DE1;}
	.st2{fill:#65B2E8;}
	.st3{clip-path:url(#SVGID_2_);}
	.st4{clip-path:url(#SVGID_4_);}
	.st5{clip-path:url(#SVGID_6_);}
	.st6{fill:#1D1D1B;}
	.st7{fill:#FFFFFF;}
	.st8{fill:#575756;}
	.st9{fill:#B1B1B1;}
	.st10{clip-path:url(#SVGID_8_);}
	.st11{clip-path:url(#SVGID_10_);}
	.st12{clip-path:url(#SVGID_12_);}
	.st13{clip-path:url(#SVGID_14_);}
	.st14{clip-path:url(#SVGID_16_);}
	.st15{clip-path:url(#SVGID_18_);}
	.st16{clip-path:url(#SVGID_20_);}
	.st17{clip-path:url(#SVGID_22_);}
	.st18{clip-path:url(#SVGID_24_);}
	.st19{clip-path:url(#SVGID_26_);}
	.st20{clip-path:url(#SVGID_28_);}
	.st21{clip-path:url(#SVGID_30_);}
	.st22{fill:#051C2C;}
	.st23{clip-path:url(#SVGID_32_);}
	.st24{clip-path:url(#SVGID_34_);}
	.st25{clip-path:url(#SVGID_36_);}
	.st26{fill:#003B4A;}
	.st27{fill:#C2E76B;}
	.st28{opacity:0.7;clip-path:url(#SVGID_38_);}
	.st29{opacity:0.7;clip-path:url(#SVGID_40_);}
	.st30{opacity:0.7;clip-path:url(#SVGID_42_);}
	.st31{opacity:0.7;clip-path:url(#SVGID_44_);}
	.st32{opacity:0.7;clip-path:url(#SVGID_46_);}
	.st33{opacity:0.7;clip-path:url(#SVGID_48_);}
	.st34{opacity:0.7;clip-path:url(#SVGID_50_);}
	.st35{opacity:0.7;clip-path:url(#SVGID_52_);}
	.st36{opacity:0.7;clip-path:url(#SVGID_54_);}
	.st37{clip-path:url(#SVGID_56_);}
	.st38{clip-path:url(#SVGID_58_);}
	.st39{clip-path:url(#SVGID_60_);}
	.st40{opacity:0.7;clip-path:url(#SVGID_62_);}
	.st41{opacity:0.7;clip-path:url(#SVGID_64_);}
	.st42{opacity:0.7;clip-path:url(#SVGID_66_);}
	.st43{opacity:0.7;clip-path:url(#SVGID_68_);}
	.st44{opacity:0.7;clip-path:url(#SVGID_70_);}
	.st45{opacity:0.7;clip-path:url(#SVGID_72_);}
	.st46{clip-path:url(#SVGID_74_);}
	.st47{clip-path:url(#SVGID_76_);}
	.st48{clip-path:url(#SVGID_78_);}
	.st49{clip-path:url(#SVGID_80_);}
	.st50{clip-path:url(#SVGID_82_);}
	.st51{clip-path:url(#SVGID_84_);}
	.st52{opacity:0.7;clip-path:url(#SVGID_86_);}
	.st53{opacity:0.7;clip-path:url(#SVGID_88_);}
	.st54{opacity:0.7;clip-path:url(#SVGID_90_);}
	.st55{clip-path:url(#SVGID_92_);}
	.st56{clip-path:url(#SVGID_94_);}
	.st57{clip-path:url(#SVGID_96_);}
	.st58{opacity:0.7;clip-path:url(#SVGID_98_);}
	.st59{opacity:0.7;clip-path:url(#SVGID_100_);}
	.st60{opacity:0.7;clip-path:url(#SVGID_102_);}
	.st61{opacity:0.7;clip-path:url(#SVGID_104_);}
	.st62{opacity:0.7;clip-path:url(#SVGID_106_);}
	.st63{opacity:0.7;clip-path:url(#SVGID_108_);}
	.st64{clip-path:url(#SVGID_110_);}
	.st65{clip-path:url(#SVGID_112_);}
	.st66{clip-path:url(#SVGID_114_);}
	.st67{clip-path:url(#SVGID_116_);}
	.st68{clip-path:url(#SVGID_118_);}
	.st69{clip-path:url(#SVGID_120_);}
	.st70{clip-path:url(#SVGID_122_);}
	.st71{clip-path:url(#SVGID_124_);}
	.st72{clip-path:url(#SVGID_126_);}
	.st73{opacity:0.7;clip-path:url(#SVGID_128_);}
	.st74{opacity:0.7;clip-path:url(#SVGID_130_);}
	.st75{opacity:0.7;clip-path:url(#SVGID_132_);}
	.st76{clip-path:url(#SVGID_134_);}
	.st77{clip-path:url(#SVGID_136_);}
	.st78{clip-path:url(#SVGID_138_);}
	.st79{clip-path:url(#SVGID_140_);}
	.st80{clip-path:url(#SVGID_142_);}
	.st81{clip-path:url(#SVGID_144_);}
</style>
<g>
	<g>
		<g>
			<path class="st7" d="M81.28,331.63l19.31-48.71h6.89l19.31,48.71h-6.75l-4.54-11.36H92.07l-4.47,11.36H81.28z M93.92,315.3h19.74
				l-9.73-24.99h-0.28L93.92,315.3z"/>
			<path class="st7" d="M144.9,331.63v-43.6h-15.48v-5.11h37.28v5.11h-15.48v43.6H144.9z"/>
			<path class="st7" d="M178.27,331.63v-48.71h6.32v43.6h22.72l0.99,5.11H178.27z"/>
			<path class="st7" d="M213.28,331.63l19.31-48.71h6.89l19.31,48.71h-6.75l-4.54-11.36h-23.43l-4.47,11.36H213.28z M225.92,315.3
				h19.74l-9.73-24.99h-0.28L225.92,315.3z"/>
			<path class="st7" d="M268.88,331.63v-48.71h5.33l21.51,32.59l2.91,4.69h0.21v-37.28h5.68v48.71h-5.47l-22.15-33.66l-2.06-3.55
				h-0.28v37.21H268.88z"/>
			<path class="st7" d="M331.65,331.63v-43.6h-15.48v-5.11h37.28v5.11h-15.48v43.6H331.65z"/>
			<path class="st7" d="M362.96,331.63v-5.11h5.68v-38.49h-5.68v-5.11h17.61v5.11h-5.61v38.49h5.61v5.11H362.96z"/>
			<path class="st7" d="M411.81,332.34c-2.7,0-5.2-0.38-7.49-1.14c-2.3-0.76-4.31-2.02-6.04-3.8c-1.73-1.78-3.08-4.18-4.05-7.21
				c-0.97-3.03-1.46-6.82-1.46-11.36v-3.12c0-4.5,0.5-8.26,1.49-11.29c0.99-3.03,2.38-5.44,4.15-7.24c1.78-1.8,3.82-3.08,6.14-3.83
				c2.32-0.76,4.8-1.14,7.46-1.14h0.71c2.41,0,4.72,0.32,6.92,0.96c2.2,0.64,4.14,1.69,5.82,3.16c1.68,1.47,3.01,3.42,3.98,5.86
				c0.97,2.44,1.46,5.46,1.46,9.05h-6.04c0-3.69-0.56-6.54-1.67-8.56c-1.11-2.01-2.63-3.41-4.54-4.19c-1.92-0.78-4.08-1.17-6.5-1.17
				c-1.85,0-3.55,0.26-5.11,0.78c-1.56,0.52-2.92,1.41-4.08,2.66c-1.16,1.25-2.06,2.99-2.7,5.22c-0.64,2.23-0.96,5.02-0.96,8.38
				v5.82c0,4.45,0.53,7.92,1.6,10.4c1.07,2.49,2.56,4.21,4.47,5.18c1.92,0.97,4.15,1.46,6.71,1.46c2.41,0,4.59-0.4,6.53-1.21
				c1.94-0.8,3.49-2.2,4.65-4.19c1.16-1.99,1.74-4.83,1.74-8.52h5.89c0,3.46-0.5,6.39-1.49,8.8c-0.99,2.41-2.34,4.37-4.05,5.86
				c-1.7,1.49-3.67,2.59-5.89,3.3c-2.23,0.71-4.54,1.07-6.96,1.07H411.81z"/>
			<path class="st7" d="M438.23,331.63l19.31-48.71h6.89l19.31,48.71H477l-4.54-11.36h-23.43l-4.47,11.36H438.23z M450.87,315.3
				h19.74l-9.73-24.99h-0.28L450.87,315.3z"/>
		</g>
		<path class="st7" d="M244.94,276.68c-0.98-0.25-1.62-0.84-2.5-1.65c-1.38-1.27-3.1-2.86-6.4-2.86c-3.31,0-5.02,1.58-6.4,2.86
			c-0.88,0.81-1.52,1.4-2.5,1.65l-0.7,0.18v4.05l1.09-0.19c2.36-0.41,3.74-1.69,4.86-2.71c1.21-1.11,1.93-1.78,3.66-1.78
			c1.72,0,2.45,0.67,3.66,1.78c1.11,1.03,2.5,2.3,4.86,2.71l1.09,0.19v-4.05L244.94,276.68z"/>
		<g>
			<path class="st7" d="M81.39,259.38c-3.46,0-6.62-0.51-9.48-1.53c-2.86-1.02-5.16-2.61-6.89-4.79c-1.73-2.18-2.59-5.04-2.59-8.59
				c0-0.28,0-0.56,0-0.82c0-0.26,0.02-0.51,0.07-0.75h9.59c-0.05,0.24-0.07,0.45-0.07,0.64c0,0.19,0,0.4,0,0.64
				c0,1.52,0.37,2.82,1.1,3.91c0.73,1.09,1.82,1.92,3.27,2.49c1.44,0.57,3.16,0.85,5.15,0.85c2.22,0,4.05-0.22,5.47-0.67
				c1.42-0.45,2.49-1.15,3.2-2.09c0.71-0.95,1.07-2.11,1.07-3.48c0-1.47-0.51-2.64-1.53-3.51c-1.02-0.88-2.34-1.57-3.98-2.09
				c-1.63-0.52-3.43-1.01-5.4-1.46c-1.96-0.45-3.93-0.98-5.89-1.6c-1.96-0.61-3.78-1.44-5.43-2.49c-1.66-1.04-2.98-2.41-3.98-4.12
				c-0.99-1.7-1.49-3.88-1.49-6.53c0-3.17,0.86-5.8,2.59-7.88c1.73-2.08,4.02-3.64,6.89-4.69c2.86-1.04,5.98-1.56,9.34-1.56
				c3.36,0,6.41,0.49,9.16,1.46c2.74,0.97,4.95,2.49,6.6,4.54c1.66,2.06,2.49,4.72,2.49,7.99v0.92h-9.44v-0.85
				c0-1.28-0.34-2.39-1.03-3.34c-0.69-0.95-1.67-1.67-2.95-2.17c-1.28-0.5-2.84-0.75-4.69-0.75c-1.7,0-3.21,0.18-4.51,0.53
				c-1.3,0.36-2.31,0.92-3.02,1.7c-0.71,0.78-1.07,1.79-1.07,3.02c0,1.42,0.5,2.56,1.49,3.41c0.99,0.85,2.32,1.53,3.98,2.02
				c1.66,0.5,3.49,0.97,5.5,1.42c2.01,0.45,4,0.97,5.96,1.56c1.96,0.59,3.77,1.4,5.43,2.41c1.66,1.02,2.98,2.37,3.98,4.05
				c0.99,1.68,1.49,3.82,1.49,6.43c0,3.79-0.9,6.83-2.7,9.12c-1.8,2.3-4.22,3.98-7.28,5.04C88.74,258.84,85.27,259.38,81.39,259.38z
				"/>
			<path class="st7" d="M117.6,258.67v-48.71h34.15v7.95H127.9v12h20.81v7.81H127.9v12.99h23.86v7.95H117.6z"/>
			<path class="st7" d="M167.09,258.67v-48.71h8.66l17.4,25.85l2.56,4.47l0.28-0.07v-30.25h9.37v48.71h-8.88l-17.89-26.77
				l-1.78-3.27l-0.36,0.07v29.96H167.09z"/>
			<path class="st7" d="M233.55,258.67v-40.69h-13.99v-8.02h38.27v8.02h-13.99v40.69H233.55z"/>
			<path class="st7" d="M270.26,258.67v-7.74h5.68v-33.23h-5.68v-7.74h21.73v7.74h-5.68v33.23h5.68v7.74H270.26z"/>
			<path class="st7" d="M308.39,258.67v-48.71h8.66l17.4,25.85l2.56,4.47l0.28-0.07v-30.25h9.37v48.71h-8.88L319.9,231.9l-1.78-3.27
				l-0.36,0.07v29.96H308.39z"/>
			<path class="st7" d="M364.84,258.67v-48.71h33.87l-1.14,7.95h-22.44v12h20.81v7.81h-20.81v12.99h22.72l1.14,7.95H364.84z"/>
			<path class="st7" d="M414.33,258.67v-48.71h10.37v40.62h20.38l1.21,8.09H414.33z"/>
			<path class="st7" d="M454.52,258.67l17.89-48.71h12.36l17.82,48.71H491.8l-3.76-10.08H468.3l-3.76,10.08H454.52z M470.86,241.13
				h14.56l-7.1-20.24h-0.28L470.86,241.13z"/>
		</g>
	</g>
	<g>
		<path class="st7" d="M161.8,71.91c2.2-2.02,4.43-4.01,6.71-5.92c33.42-27.89,73.17-42.63,114.95-42.63
			c41.78,0,81.53,14.74,114.95,42.63c2.28,1.9,4.49,3.89,6.69,5.9c8.29-4.06,16.18-7.13,23.85-9.43
			c-4.99-5.06-10.17-9.89-15.58-14.4C375.71,16.62,330.78,0,283.46,0s-92.24,16.62-129.92,48.05c-5.41,4.52-10.6,9.35-15.59,14.41
			C145.63,64.77,153.51,67.84,161.8,71.91z"/>
		<path class="st7" d="M103.05,102.61c0.29,2.63-0.19,5.41-1.68,7.99c-10.47,18.12-18.75,37.75-24.43,58.28l-1.88,6.24h24.39
			c5.86-21.15,14.74-41.24,26.1-59.43c1.71-2.74,3.63-5.72,6.15-7.42C121.75,104.43,112.85,103.36,103.05,102.61z"/>
		<path class="st7" d="M465.55,110.6c-1.49-2.59-1.97-5.36-1.68-8c-9.8,0.75-19.03,2.58-28.98,6.41c2.53,1.71,4.77,3.92,6.49,6.67
			c11.36,18.19,20.23,38.27,26.1,59.43h24.39l-1.88-6.24C484.3,148.35,476.02,128.71,465.55,110.6z"/>
		<path class="st7" d="M509.56,24.68h-54.7v18.69h44.33v24.08h-22.01c-27.64,0-52.8,4.27-85.73,25.12
			c-7.7,4.87-14.71,9.91-21.5,14.78c-24.17,17.35-45.05,32.34-86.51,32.34c-41.47,0-62.34-14.99-86.51-32.34
			c-6.78-4.87-13.8-9.91-21.5-14.78c-32.93-20.85-58.09-25.12-85.73-25.12H67.69V43.37h0.03h44.36V24.68H55.53H0v18.69h44.33V90.8
			h45.36c24.88,0,44.84,3.52,73.24,21.49c7.12,4.51,13.86,9.34,20.37,14.02c25.15,18.06,51.15,36.73,100.14,36.73
			c48.98,0,74.99-18.67,100.13-36.73c6.51-4.67,13.24-9.51,20.37-14.02c28.4-17.98,48.36-21.49,73.24-21.49h45.36V43.37h0.03
			l44.36,0V24.68L509.56,24.68z"/>
	</g>
</g>
</svg>
